# xmcd
#
# Track frame offsets:
#	150
#	15678
#	33808
#	50298
#	64980
#	79651
#	93601
#	107413
#	125677
#	140903
#	157235
#
# Disc length: 2286 seconds
# Revision: 0
# Processed by: cddbd v1.5.2PL0 Copyright (c) Steve Scherf et al.
# Submitted via: dBpowerAMP V12.0
#
DISCID=9508ec0b
DTITLE=Various Artist - I Sang The Song
DYEAR=2017
DGENRE=Country
TTITLE0=Sierra Hull and Justin Moses  - The Guitar
TTITLE1=Buddy Melton, Milan Miller and Andrea Zonn - Somewhere Bound
TTITLE2=Junior Sisk, Becky Isaacs Bowman and Sonya Isaacs Yeary - The Wheat Crop
TTITLE3=Jim Lauderdale - Barefoot Till After The Frost
TTITLE4=Shawn Camp - Manganese Mine
TTITLE5=Buddy Melton and Milan Miller - Three Cows And Two Horses
TTITLE6=Jim Lauderdale - Simple Math
TTITLE7=Junior Sisk - Crimora Church Of The Brethren
TTITLE8=Shawn Camp - Going Back To Bristol
TTITLE9=John Prine - I Sang The Song
TTITLE10=Mac Wiseman - Tis Sweet To Be Remembered
EXTD=
EXTT0=
EXTT1=
EXTT2=
EXTT3=
EXTT4=
EXTT5=
EXTT6=
EXTT7=
EXTT8=
EXTT9=
EXTT10=
PLAYORDER=
